<svg width="49" height="25" viewBox="0 0 49 25" fill="none" xmlns="http://www.w3.org/2000/svg">
<rect width="49" height="25" rx="2" fill="#272727"/>
<path d="M6.20384 14V5.27273H11.9822V6.79403H8.04901V8.87358H11.5987V10.3949H8.04901V14H6.20384ZM13.0838 14V7.45455H14.8438V8.59659H14.9119C15.0313 8.19034 15.2315 7.88352 15.5128 7.67614C15.794 7.46591 16.1179 7.3608 16.4844 7.3608C16.5753 7.3608 16.6733 7.36648 16.7784 7.37784C16.8835 7.3892 16.9759 7.40483 17.0554 7.42472V9.03551C16.9702 9.00994 16.8523 8.98722 16.7017 8.96733C16.5511 8.94744 16.4134 8.9375 16.2884 8.9375C16.0213 8.9375 15.7827 8.99574 15.5724 9.11222C15.3651 9.22585 15.2003 9.38494 15.0781 9.58949C14.9588 9.79403 14.8991 10.0298 14.8991 10.2969V14H13.0838ZM20.6467 14.1278C19.9847 14.1278 19.4123 13.9872 18.9293 13.706C18.4492 13.4219 18.0785 13.027 17.8171 12.5213C17.5558 12.0128 17.4251 11.4233 17.4251 10.7528C17.4251 10.0767 17.5558 9.4858 17.8171 8.98011C18.0785 8.47159 18.4492 8.0767 18.9293 7.79545C19.4123 7.51136 19.9847 7.36932 20.6467 7.36932C21.3086 7.36932 21.8796 7.51136 22.3597 7.79545C22.8427 8.0767 23.2148 8.47159 23.4762 8.98011C23.7376 9.4858 23.8683 10.0767 23.8683 10.7528C23.8683 11.4233 23.7376 12.0128 23.4762 12.5213C23.2148 13.027 22.8427 13.4219 22.3597 13.706C21.8796 13.9872 21.3086 14.1278 20.6467 14.1278ZM20.6552 12.7216C20.9563 12.7216 21.2077 12.6364 21.4094 12.4659C21.6112 12.2926 21.7631 12.0568 21.8654 11.7585C21.9705 11.4602 22.0231 11.1207 22.0231 10.7401C22.0231 10.3594 21.9705 10.0199 21.8654 9.72159C21.7631 9.4233 21.6112 9.1875 21.4094 9.0142C21.2077 8.84091 20.9563 8.75426 20.6552 8.75426C20.3512 8.75426 20.0955 8.84091 19.8881 9.0142C19.6836 9.1875 19.5288 9.4233 19.4237 9.72159C19.3214 10.0199 19.2702 10.3594 19.2702 10.7401C19.2702 11.1207 19.3214 11.4602 19.4237 11.7585C19.5288 12.0568 19.6836 12.2926 19.8881 12.4659C20.0955 12.6364 20.3512 12.7216 20.6552 12.7216ZM29.2461 11.2131V7.45455H31.0614V14H29.3185V12.8111H29.2504C29.1026 13.1946 28.8569 13.5028 28.5131 13.7358C28.1722 13.9687 27.756 14.0852 27.2646 14.0852C26.8271 14.0852 26.4421 13.9858 26.1097 13.7869C25.7773 13.5881 25.5174 13.3054 25.3299 12.9389C25.1452 12.5724 25.0515 12.1335 25.0487 11.6222V7.45455H26.864V11.2983C26.8668 11.6847 26.9705 11.9901 27.1751 12.2145C27.3796 12.4389 27.6538 12.5511 27.9975 12.5511C28.2163 12.5511 28.4208 12.5014 28.6112 12.402C28.8015 12.2997 28.9549 12.1491 29.0714 11.9503C29.1907 11.7514 29.2489 11.5057 29.2461 11.2131ZM35.995 7.45455V8.81818H32.0533V7.45455H35.995ZM32.9482 5.88636H34.7635V11.9886C34.7635 12.1562 34.7891 12.2869 34.8402 12.3807C34.8913 12.4716 34.9624 12.5355 35.0533 12.5724C35.147 12.6094 35.255 12.6278 35.3771 12.6278C35.4624 12.6278 35.5476 12.6207 35.6328 12.6065C35.718 12.5895 35.7834 12.5767 35.8288 12.5682L36.1143 13.919C36.0234 13.9474 35.8956 13.9801 35.7308 14.017C35.5661 14.0568 35.3658 14.081 35.13 14.0895C34.6925 14.1065 34.3089 14.0483 33.9794 13.9148C33.6527 13.7812 33.3984 13.5739 33.2166 13.2926C33.0348 13.0114 32.9453 12.6562 32.9482 12.2273V5.88636ZM40.0902 14.1278C39.4169 14.1278 38.8374 13.9915 38.3516 13.7188C37.8686 13.4432 37.4964 13.054 37.2351 12.5511C36.9737 12.0455 36.843 11.4474 36.843 10.7571C36.843 10.0838 36.9737 9.4929 37.2351 8.98438C37.4964 8.47585 37.8643 8.07955 38.3388 7.79545C38.8161 7.51136 39.3757 7.36932 40.0178 7.36932C40.4496 7.36932 40.8516 7.43892 41.2237 7.57812C41.5987 7.71449 41.9254 7.92045 42.2038 8.19602C42.4851 8.47159 42.7038 8.81818 42.8601 9.2358C43.0163 9.65057 43.0945 10.1364 43.0945 10.6932V11.1918H37.5675V10.0668H41.3857C41.3857 9.8054 41.3288 9.57386 41.2152 9.37216C41.1016 9.17045 40.9439 9.01278 40.7422 8.89915C40.5433 8.78267 40.3118 8.72443 40.0476 8.72443C39.772 8.72443 39.5277 8.78835 39.3146 8.91619C39.1044 9.04119 38.9396 9.21023 38.8203 9.4233C38.701 9.63352 38.6399 9.8679 38.6371 10.1264V11.196C38.6371 11.5199 38.6967 11.7997 38.8161 12.0355C38.9382 12.2713 39.1101 12.4531 39.3317 12.581C39.5533 12.7088 39.8161 12.7727 40.12 12.7727C40.3217 12.7727 40.5064 12.7443 40.674 12.6875C40.8416 12.6307 40.9851 12.5455 41.1044 12.4318C41.2237 12.3182 41.3146 12.179 41.3771 12.0142L43.0561 12.125C42.9709 12.5284 42.7962 12.8807 42.532 13.1818C42.2706 13.4801 41.9325 13.7131 41.5178 13.8807C41.1058 14.0455 40.63 14.1278 40.0902 14.1278Z" fill="#C2B290"/>
<path d="M10.068 15.1932L8.89608 19.5469H8.51256L9.68444 15.1932H10.068ZM11.7792 16.2727V16.6278H10.309V16.2727H11.7792ZM10.7493 19V15.8963C10.7493 15.7401 10.786 15.6098 10.8594 15.5057C10.9328 15.4015 11.0281 15.3234 11.1453 15.2713C11.2625 15.2192 11.3862 15.1932 11.5164 15.1932C11.6194 15.1932 11.7034 15.2015 11.7685 15.218C11.8336 15.2346 11.8821 15.25 11.9141 15.2642L11.7934 15.6264C11.7721 15.6193 11.7425 15.6104 11.7046 15.5998C11.6679 15.5891 11.6194 15.5838 11.559 15.5838C11.4205 15.5838 11.3205 15.6187 11.2589 15.6886C11.1986 15.7584 11.1684 15.8608 11.1684 15.9957V19H10.7493ZM14.0852 17.8849V16.2727H14.5042V19H14.0852V18.5384H14.0568C13.9929 18.6768 13.8934 18.7946 13.7585 18.8917C13.6235 18.9876 13.4531 19.0355 13.2471 19.0355C13.0767 19.0355 12.9251 18.9982 12.7926 18.9237C12.66 18.8479 12.5558 18.7343 12.4801 18.5827C12.4043 18.43 12.3664 18.2377 12.3664 18.0057V16.2727H12.7855V17.9773C12.7855 18.1761 12.8411 18.3348 12.9524 18.4531C13.0648 18.5715 13.2081 18.6307 13.3821 18.6307C13.4862 18.6307 13.5922 18.604 13.6999 18.5508C13.8088 18.4975 13.8999 18.4158 13.9733 18.3058C14.0479 18.1957 14.0852 18.0554 14.0852 17.8849ZM17.2035 16.8835L16.8271 16.9901C16.8034 16.9273 16.7685 16.8664 16.7223 16.8072C16.6774 16.7468 16.6158 16.6971 16.5377 16.658C16.4596 16.619 16.3595 16.5994 16.2376 16.5994C16.0707 16.5994 15.9316 16.6379 15.8204 16.7148C15.7103 16.7906 15.6552 16.8871 15.6552 17.0043C15.6552 17.1084 15.6931 17.1907 15.7689 17.2511C15.8446 17.3114 15.963 17.3617 16.124 17.402L16.5288 17.5014C16.7727 17.5606 16.9544 17.6512 17.0739 17.7731C17.1935 17.8938 17.2532 18.0495 17.2532 18.2401C17.2532 18.3963 17.2083 18.536 17.1183 18.6591C17.0295 18.7822 16.9052 18.8793 16.7454 18.9503C16.5856 19.0213 16.3998 19.0568 16.1879 19.0568C15.9097 19.0568 15.6795 18.9964 15.4972 18.8757C15.3149 18.755 15.1995 18.5786 15.151 18.3466L15.5487 18.2472C15.5866 18.3939 15.6582 18.504 15.7635 18.5774C15.8701 18.6508 16.0092 18.6875 16.1808 18.6875C16.3761 18.6875 16.5312 18.6461 16.646 18.5632C16.762 18.4792 16.82 18.3786 16.82 18.2614C16.82 18.1667 16.7869 18.0874 16.7206 18.0234C16.6543 17.9583 16.5525 17.9098 16.4152 17.8778L15.9606 17.7713C15.7109 17.7121 15.5274 17.6204 15.4102 17.4961C15.2942 17.3706 15.2362 17.2138 15.2362 17.0256C15.2362 16.8717 15.2794 16.7356 15.3658 16.6172C15.4534 16.4988 15.5724 16.4059 15.7227 16.3384C15.8742 16.271 16.0459 16.2372 16.2376 16.2372C16.5075 16.2372 16.7194 16.2964 16.8733 16.4148C17.0283 16.5331 17.1384 16.6894 17.2035 16.8835ZM17.884 19V16.2727H18.303V19H17.884ZM18.0971 15.8182C18.0154 15.8182 17.945 15.7904 17.8858 15.7347C17.8278 15.6791 17.7988 15.6122 17.7988 15.5341C17.7988 15.456 17.8278 15.3891 17.8858 15.3335C17.945 15.2778 18.0154 15.25 18.0971 15.25C18.1788 15.25 18.2486 15.2778 18.3066 15.3335C18.3658 15.3891 18.3954 15.456 18.3954 15.5341C18.3954 15.6122 18.3658 15.6791 18.3066 15.7347C18.2486 15.7904 18.1788 15.8182 18.0971 15.8182ZM20.1785 19.0568C19.9323 19.0568 19.7162 18.9982 19.5304 18.881C19.3457 18.7638 19.2013 18.5999 19.0972 18.3892C18.9942 18.1785 18.9427 17.9323 18.9427 17.6506C18.9427 17.3665 18.9942 17.1185 19.0972 16.9066C19.2013 16.6947 19.3457 16.5302 19.5304 16.413C19.7162 16.2958 19.9323 16.2372 20.1785 16.2372C20.4247 16.2372 20.6401 16.2958 20.8248 16.413C21.0106 16.5302 21.1551 16.6947 21.258 16.9066C21.3622 17.1185 21.4143 17.3665 21.4143 17.6506C21.4143 17.9323 21.3622 18.1785 21.258 18.3892C21.1551 18.5999 21.0106 18.7638 20.8248 18.881C20.6401 18.9982 20.4247 19.0568 20.1785 19.0568ZM20.1785 18.6804C20.3655 18.6804 20.5194 18.6325 20.6401 18.5366C20.7609 18.4407 20.8502 18.3146 20.9082 18.1584C20.9662 18.0021 20.9953 17.8329 20.9953 17.6506C20.9953 17.4683 20.9662 17.2984 20.9082 17.141C20.8502 16.9835 20.7609 16.8563 20.6401 16.7592C20.5194 16.6622 20.3655 16.6136 20.1785 16.6136C19.9915 16.6136 19.8376 16.6622 19.7168 16.7592C19.5961 16.8563 19.5067 16.9835 19.4487 17.141C19.3907 17.2984 19.3617 17.4683 19.3617 17.6506C19.3617 17.8329 19.3907 18.0021 19.4487 18.1584C19.5067 18.3146 19.5961 18.4407 19.7168 18.5366C19.8376 18.6325 19.9915 18.6804 20.1785 18.6804ZM22.473 17.3594V19H22.0539V16.2727H22.4588V16.6989H22.4943C22.5582 16.5604 22.6553 16.4491 22.7855 16.3651C22.9157 16.2798 23.0838 16.2372 23.2897 16.2372C23.4744 16.2372 23.636 16.2751 23.7745 16.3509C23.913 16.4254 24.0207 16.5391 24.0976 16.6918C24.1746 16.8433 24.213 17.035 24.213 17.267V19H23.794V17.2955C23.794 17.0812 23.7384 16.9143 23.6271 16.7947C23.5158 16.674 23.3631 16.6136 23.169 16.6136C23.0352 16.6136 22.9157 16.6426 22.8103 16.7006C22.7062 16.7586 22.6239 16.8433 22.5635 16.9545C22.5032 17.0658 22.473 17.2008 22.473 17.3594ZM26.2642 15.1932L25.0924 19.5469H24.7089L25.8807 15.1932H26.2642ZM26.761 19V16.2727H27.1658V16.6847H27.1942C27.2439 16.5497 27.3339 16.4402 27.4641 16.3562C27.5943 16.2721 27.7411 16.2301 27.9044 16.2301C27.9352 16.2301 27.9737 16.2307 28.0198 16.2319C28.066 16.2331 28.1009 16.2348 28.1246 16.2372V16.6634C28.1104 16.6598 28.0778 16.6545 28.0269 16.6474C27.9772 16.6391 27.9246 16.6349 27.8689 16.6349C27.7363 16.6349 27.618 16.6628 27.5138 16.7184C27.4108 16.7728 27.3291 16.8486 27.2688 16.9457C27.2096 17.0415 27.18 17.151 27.18 17.2741V19H26.761ZM29.6463 19.0568C29.4001 19.0568 29.184 18.9982 28.9982 18.881C28.8135 18.7638 28.6691 18.5999 28.5649 18.3892C28.462 18.1785 28.4105 17.9323 28.4105 17.6506C28.4105 17.3665 28.462 17.1185 28.5649 16.9066C28.6691 16.6947 28.8135 16.5302 28.9982 16.413C29.184 16.2958 29.4001 16.2372 29.6463 16.2372C29.8925 16.2372 30.1079 16.2958 30.2926 16.413C30.4784 16.5302 30.6228 16.6947 30.7258 16.9066C30.83 17.1185 30.8821 17.3665 30.8821 17.6506C30.8821 17.9323 30.83 18.1785 30.7258 18.3892C30.6228 18.5999 30.4784 18.7638 30.2926 18.881C30.1079 18.9982 29.8925 19.0568 29.6463 19.0568ZM29.6463 18.6804C29.8333 18.6804 29.9872 18.6325 30.1079 18.5366C30.2286 18.4407 30.318 18.3146 30.376 18.1584C30.434 18.0021 30.463 17.8329 30.463 17.6506C30.463 17.4683 30.434 17.2984 30.376 17.141C30.318 16.9835 30.2286 16.8563 30.1079 16.7592C29.9872 16.6622 29.8333 16.6136 29.6463 16.6136C29.4592 16.6136 29.3054 16.6622 29.1846 16.7592C29.0639 16.8563 28.9745 16.9835 28.9165 17.141C28.8585 17.2984 28.8295 17.4683 28.8295 17.6506C28.8295 17.8329 28.8585 18.0021 28.9165 18.1584C28.9745 18.3146 29.0639 18.4407 29.1846 18.5366C29.3054 18.6325 29.4592 18.6804 29.6463 18.6804ZM33.2405 17.8849V16.2727H33.6595V19H33.2405V18.5384H33.212C33.1481 18.6768 33.0487 18.7946 32.9138 18.8917C32.7788 18.9876 32.6084 19.0355 32.4024 19.0355C32.2319 19.0355 32.0804 18.9982 31.9478 18.9237C31.8153 18.8479 31.7111 18.7343 31.6353 18.5827C31.5596 18.43 31.5217 18.2377 31.5217 18.0057V16.2727H31.9407V17.9773C31.9407 18.1761 31.9964 18.3348 32.1076 18.4531C32.2201 18.5715 32.3633 18.6307 32.5373 18.6307C32.6415 18.6307 32.7474 18.604 32.8552 18.5508C32.9641 18.4975 33.0552 18.4158 33.1286 18.3058C33.2032 18.1957 33.2405 18.0554 33.2405 17.8849ZM35.6131 16.2727V16.6278H34.1997V16.2727H35.6131ZM34.6116 15.6193H35.0307V18.2188C35.0307 18.3371 35.0478 18.4259 35.0822 18.4851C35.1177 18.5431 35.1627 18.5821 35.2171 18.6023C35.2727 18.6212 35.3313 18.6307 35.3929 18.6307C35.4391 18.6307 35.4769 18.6283 35.5065 18.6236C35.5361 18.6177 35.5598 18.6129 35.5775 18.6094L35.6628 18.9858C35.6344 18.9964 35.5947 19.0071 35.5438 19.0178C35.4929 19.0296 35.4284 19.0355 35.3503 19.0355C35.2319 19.0355 35.1159 19.0101 35.0023 18.9592C34.8898 18.9083 34.7963 18.8307 34.7217 18.7266C34.6483 18.6224 34.6116 18.491 34.6116 18.3324V15.6193ZM37.3576 19.0568C37.0948 19.0568 36.8681 18.9988 36.6775 18.8828C36.4881 18.7656 36.3419 18.6023 36.2389 18.3928C36.1371 18.1821 36.0862 17.937 36.0862 17.6577C36.0862 17.3783 36.1371 17.1321 36.2389 16.919C36.3419 16.7048 36.4852 16.5379 36.6686 16.4183C36.8533 16.2976 37.0687 16.2372 37.3149 16.2372C37.457 16.2372 37.5973 16.2609 37.7358 16.3082C37.8742 16.3556 38.0003 16.4325 38.1139 16.5391C38.2276 16.6444 38.3181 16.7841 38.3856 16.9581C38.4531 17.1321 38.4868 17.3464 38.4868 17.6009V17.7784H36.3845V17.4162H38.0607C38.0607 17.2623 38.0299 17.125 37.9684 17.0043C37.908 16.8835 37.8216 16.7882 37.7091 16.7184C37.5978 16.6486 37.4665 16.6136 37.3149 16.6136C37.148 16.6136 37.0036 16.6551 36.8817 16.7379C36.761 16.8196 36.668 16.9261 36.6029 17.0575C36.5378 17.1889 36.5053 17.3298 36.5053 17.4801V17.7216C36.5053 17.9276 36.5408 18.1022 36.6118 18.2454C36.684 18.3874 36.784 18.4957 36.9119 18.5703C37.0397 18.6437 37.1883 18.6804 37.3576 18.6804C37.4676 18.6804 37.5671 18.665 37.6559 18.6342C37.7458 18.6023 37.8233 18.5549 37.8884 18.4922C37.9536 18.4283 38.0039 18.349 38.0394 18.2543L38.4442 18.3679C38.4016 18.5052 38.33 18.6259 38.2294 18.7301C38.1287 18.8331 38.0045 18.9136 37.8565 18.9716C37.7085 19.0284 37.5422 19.0568 37.3576 19.0568ZM39.1242 19V16.2727H39.5291V16.6847H39.5575C39.6072 16.5497 39.6972 16.4402 39.8274 16.3562C39.9576 16.2721 40.1044 16.2301 40.2677 16.2301C40.2985 16.2301 40.337 16.2307 40.3831 16.2319C40.4293 16.2331 40.4642 16.2348 40.4879 16.2372V16.6634C40.4737 16.6598 40.4411 16.6545 40.3902 16.6474C40.3405 16.6391 40.2878 16.6349 40.2322 16.6349C40.0996 16.6349 39.9813 16.6628 39.8771 16.7184C39.7741 16.7728 39.6924 16.8486 39.6321 16.9457C39.5729 17.0415 39.5433 17.151 39.5433 17.2741V19H39.1242Z" fill="#636059"/>
</svg>
